<?xml version="1.0" encoding="UTF-8" standalone="no"?>
<!DOCTYPE svg PUBLIC "-//W3C//DTD SVG 1.1//EN" "http://www.w3.org/Graphics/SVG/1.1/DTD/svg11.dtd">
<svg width="100%" height="100%" viewBox="0 0 818 399" version="1.1" xmlns="http://www.w3.org/2000/svg" xmlns:xlink="http://www.w3.org/1999/xlink" xml:space="preserve" xmlns:serif="http://www.serif.com/" style="fill-rule:evenodd;clip-rule:evenodd;stroke-linejoin:round;stroke-miterlimit:2;">
    <g transform="matrix(1,0,0,1,-0.512695,-3.38867)">
        <g transform="matrix(1,0,0,1,0,10)">
            <text x="0px" y="0px" style="font-family:'AppleSymbols', 'Apple Symbols';font-size:10px;fill:white;">⠁⠀⠀⠀⠀⠀⠀⠀⠀⠀⠀⠀⠀⠀⠀⠀⠀⠀⠀⠀⠀⠀⠀⠀⠀⠀⠀⠀⠀⠀⠀⠀⠀⠀⠀⠀⢀⠀⠀⠀⠀⠀⠀⠀⠀⠀⠀⠀⠀⠀⠀⠀⠀⠀⠀⠀⠀⠀⠀⠀⠀⠀⠀⠁⠀⠀⠀⠀⠂⠀⠀⠀⠀⠀⠀⠀⠀⠀⠀⠀⠀⠀⠀⠀⠀⠀⠀⠀⠀⠀⠀⠀⠀⠀⠀⠀⠀⠀⠀⠀⠀⠀⠀⠀⠀⠀⠀⠀⠀⠀⠀⠀⠀⠀⠀⠀⠀⠀⠀⠀</text>
        </g>
        <g transform="matrix(1,0,0,1,0,20)">
            <text x="0px" y="0px" style="font-family:'AppleSymbols', 'Apple Symbols';font-size:10px;fill:white;">⠀⠀⠀⠀⠀⠀⠀⠀⠀⠀⠀⠀⠀⠀⠀⠀⠀⠀⠀⠀⠀⠀⠀⠀⠀⠀⠀⠀⠀⠀⠀⠀⠀⠀⠀⠀⠀⠀⠀⠀⠀⠀⠀⠀⠀⠀⠀⠀⠀⠀⠀⠀⠀⠀⠀⠀⠀⠀⠀⠀⠀⠀⠀⠀⠀⠀⠀⠀⠀⠀⠀⠀⠀⠀⠀⠀⠀⠀⠀⠀⠀⠀⠀⠀⠀⠀⠀⠀⠀⠀⠀⠀⠀⠀⠀⢀⢄⡄⡀⠄⠀⠀⠀⠀⠀⠀⠀⠀⠀⠀⠀⠀⠀⠀⠀⠀⠀⠀⠀⠀</text>
        </g>
        <g transform="matrix(1,0,0,1,0,30)">
            <text x="0px" y="0px" style="font-family:'AppleSymbols', 'Apple Symbols';font-size:10px;fill:white;">⠀⠀⠀⠀⠀⠀⠀⠀⠀⠀⠀⠀⠀⠀⠀⠀⠀⠀⠀⠀⠀⠀⠀⠀⠀⠀⠀⠀⠀⠀⠀⠀⠀⠀⠀⠀⠀⠀⠀⠀⠀⠀⠀⠀⠀⠀⠀⠀⠀⠀⠀⠀⠀⠀⠀⠀⠀⠀⠀⠀⠀⠀⠀⠀⠀⠀⠀⠀⠀⠀⠀⠀⠀⠀⠀⠀⠀⠀⠀⠀⠀⠀⠀⠀⠀⠀⠀⠀⠀⠀⠀⠀⠀⠀⠀⢸⣿⠍⠁⡃⠀⠀⠀⠀⠀⠀⠀⠀⠀⠀⠀⠀⠀⠀⠀⠀⠀⠀⢀⣼</text>
        </g>
        <g transform="matrix(1,0,0,1,0,40)">
            <text x="0px" y="0px" style="font-family:'AppleSymbols', 'Apple Symbols';font-size:10px;fill:white;">⠀⠀⠀⠀⠀⠀⠀⠀⠀⠀⠀⠀⠀⠀⠀⠀⠀⠀⠀⠀⠀⠀⠀⠀⠀⠀⠀⠀⠀⠀⠀⠀⠀⠀⠀⠀⠀⠀⠀⠀⠀⠀⠀⠀⠀⠀⠀⠀⠀⠀⠀⠀⠀⠀⠀⠀⠀⠀⠀⠀⠀⠀⠀⠀⠀⠀⠀⠀⠀⠀⠀⠀⠀⠀⠀⠀⠀⠀⠀⠀⠀⠀⠀⠀⠀⠀⠀⠀⠀⠀⠀⠀⠀⠀⠀⢘⢿⠍⠉⡇⠀⠀⠀⠀⠀⠀⠀⠀⠀⠀⡠⠀⠀⠀⠀⠀⠀⢠⣾⣿</text>
        </g>
        <g transform="matrix(1,0,0,1,0,50)">
            <text x="0px" y="0px" style="font-family:'AppleSymbols', 'Apple Symbols';font-size:10px;fill:white;">⠀⠀⠀⠀⠀⠀⠀⠀⠀⠀⠀⠀⠀⠀⠀⠀⠀⠀⠀⠀⠀⠀⠀⠀⠀⠀⠀⠀⠀⠀⠀⠀⠀⠀⠀⠀⠀⠀⠀⠀⠀⠀⠀⠀⠀⠀⠀⠀⠀⠀⠀⠀⠀⠀⠀⠀⠀⠀⠀⠀⠀⠀⠀⠀⠀⠀⠀⠀⠀⠀⠀⠀⠀⠀⠀⠀⠀⠀⠀⠀⠀⠀⠀⠀⠀⠀⠀⠀⠀⠀⠀⠀⠀⠀⠀⠨⣻⣂⠁⡇⠀⠀⠀⢠⠄⡄⠀⠀⠀⢠⡟⡀⠀⠀⠀⠀⠀⠀⣿⡿</text>
        </g>
        <g transform="matrix(1,0,0,1,0,60)">
            <text x="0px" y="0px" style="font-family:'AppleSymbols', 'Apple Symbols';font-size:10px;fill:white;">⠀⠀⠀⠀⠀⠀⠀⠀⠀⠀⠀⠀⠀⠀⠀⠀⠀⠀⠀⠀⠀⠀⠀⠀⠀⠀⠀⠀⠀⠀⠀⠀⠀⠀⠀⠀⠀⠀⠀⠀⠀⠀⠀⠀⠀⠀⠀⠀⠀⠀⠀⠀⠀⠀⠀⠀⠀⠀⠀⠀⠀⠀⠀⠀⠀⠀⠀⠀⠀⠀⠀⠀⠀⠀⠀⠀⠀⠀⠀⠀⠀⠀⠀⠀⠀⠀⠀⠀⣠⣠⢠⡀⡀⡀⠀⠨⣿⠎⠠⣇⢀⢀⡀⣻⢗⡇⠀⠀⢠⣿⠋⢘⡀⠀⠀⠀⠀⠀⢿⣿</text>
        </g>
        <g transform="matrix(1,0,0,1,0,70)">
            <text x="0px" y="0px" style="font-family:'AppleSymbols', 'Apple Symbols';font-size:10px;fill:white;">⠀⠀⠀⠀⠀⠀⠀⠀⠀⠀⠀⠀⠀⠀⠀⠀⠀⠀⠀⠀⠀⠀⠀⠀⠀⠀⠀⠀⠀⠀⠀⠀⠀⠀⠀⠀⠀⠀⠀⠀⠀⡀⠀⠀⠀⠀⠀⠀⠀⠀⠀⠀⠀⠀⠀⠀⠀⠀⠀⠀⠀⠀⠀⠀⠀⠀⠀⠀⠀⠀⠀⠀⠀⠀⠀⠀⠀⠀⠀⠀⠀⠀⠀⠀⠀⠀⠀⠀⣿⣟⡍⠉⠁⡇⠀⠨⣿⡍⡄⣿⣿⣭⣯⣿⢧⡇⠀⠀⢻⣿⠻⠓⡛⠀⠀⢀⠀⠀⣹⣽</text>
        </g>
        <g transform="matrix(1,0,0,1,0,80)">
            <text x="0px" y="0px" style="font-family:'AppleSymbols', 'Apple Symbols';font-size:10px;fill:white;">⠀⠀⠀⠀⠀⠀⠀⠀⠀⠀⠀⠀⠀⠀⠀⠀⠀⠀⠀⠀⠀⠀⠀⠀⠀⠀⠀⠀⠀⠀⠀⠀⠀⠀⠀⠀⠀⣀⠤⡂⠋⠁⠀⠀⠀⠀⠀⠀⠀⠀⠀⠀⠀⠀⠀⠀⠀⠀⠀⠀⠀⠀⠀⠀⠀⠀⠀⠀⠀⠀⠀⠀⠀⠀⠀⠀⠀⠀⠀⠀⠀⠀⠀⠀⠀⠀⠀⠀⢸⣿⣟⠛⢱⠁⠀⢰⣿⡢⠁⣿⣿⠁⢷⣿⣿⣧⠀⡀⣸⣷⡹⠁⠠⠀⠀⣴⠀⠀⢼⣽</text>
        </g>
        <g transform="matrix(1,0,0,1,0,90)">
            <text x="0px" y="0px" style="font-family:'AppleSymbols', 'Apple Symbols';font-size:10px;fill:white;">⠀⠀⡴⠋⢢⡀⠀⠀⠀⠀⠀⠀⠀⠀⠀⠀⠀⠀⠀⠀⠀⠀⠀⠀⠀⠀⠀⠀⠀⠀⠀⠀⠀⠀⡄⠖⠩⠂⠀⠀⠀⠀⠀⠀⠀⠀⠀⠀⠀⠀⠀⠀⠀⠀⠀⠀⠀⠀⠀⠀⠀⠀⠀⠀⠀⠀⠀⠀⠀⠀⠀⠀⠀⠀⠀⠀⠀⠀⠀⠀⠀⠀⠀⠀⠀⠀⠀⠀⢸⣽⠄⠆⠨⢀⣴⣾⣿⣭⣼⡿⣏⠄⡨⢹⣏⣿⣼⣧⣿⣯⠆⡀⠂⠀⣴⢯⢱⠀⢹⣽</text>
        </g>
        <g transform="matrix(1,0,0,1,0,100)">
            <text x="0px" y="0px" style="font-family:'AppleSymbols', 'Apple Symbols';font-size:10px;fill:white;">⠀⡐⣗⠈⣀⣰⠀⠀⠀⠀⠀⠀⠀⠀⠀⠀⠀⠀⠀⠀⠀⠀⠀⠀⠀⠀⠀⡀⠀⠀⢀⠠⢊⠡⠐⠁⠀⠀⠀⠀⠀⠀⠀⠀⠀⠀⠀⠀⠀⠀⠀⠀⠀⠀⠀⠀⠀⠀⠀⠀⠀⠀⠀⠀⠀⠀⠀⠀⠀⠀⠀⠀⠀⠀⠀⠀⠀⠀⠀⠀⠀⠀⠀⠀⠀⠀⠀⠀⢸⣿⠕⠠⢸⣴⡿⣽⣺⡷⣻⣯⣛⠂⠁⠀⠃⠸⠁⢯⣿⣳⡁⠀⢬⣠⣸⡃⣵⢀⣼⣿</text>
        </g>
        <g transform="matrix(1,0,0,1,0,110)">
            <text x="0px" y="0px" style="font-family:'AppleSymbols', 'Apple Symbols';font-size:10px;fill:white;">⠛⢫⢳⢆⡂⠇⠀⠀⠀⠀⠀⠀⢀⠀⠀⠀⠀⠀⠀⠀⠀⠀⠀⠀⠀⠀⣘⡡⡔⣊⠑⠊⠁⠀⠀⠀⠀⠀⠀⠀⠀⠀⠀⠀⠀⠀⠀⠀⠀⠀⠀⠀⠀⠀⠀⠀⠀⠀⠀⠀⠀⠀⠀⠀⠀⠀⠀⠀⠀⠀⠀⠀⠀⠀⠀⠀⠀⠀⠀⠀⠀⠀⠀⠀⠀⠀⠀⠀⢸⡿⡎⠌⣾⣷⣿⣻⣟⣽⣹⣷⣥⡦⢆⢰⠴⠤⣤⢴⣾⡳⢀⠀⢸⠿⣿⣵⣾⣿⣿⣿</text>
        </g>
        <g transform="matrix(1,0,0,1,0,120)">
            <text x="0px" y="0px" style="font-family:'AppleSymbols', 'Apple Symbols';font-size:10px;fill:white;">⠄⠀⣣⡻⣻⡆⠀⠀⠀⣀⣔⣦⣼⢰⠇⠀⠀⠀⠀⠀⠀⠀⠀⢀⢠⠊⣵⡡⣽⠁⠀⠀⠀⠀⠀⠀⠀⠀⠀⠀⠀⠀⠀⠀⠀⠀⣠⠤⢖⠲⢤⡀⠀⠀⠀⠀⠀⠀⠀⠀⠀⠀⠀⠀⣠⠤⠤⢄⠀⠀⠀⠀⠀⠀⠀⠀⠀⠀⠀⠀⠀⠀⠀⠀⠀⣄⣤⢄⣸⣿⣍⣵⣿⣿⣿⣻⣿⣿⣿⣿⣓⢠⠀⢝⡀⢠⡀⡅⣹⣯⠰⠀⢸⢄⠃⡘⠠⠏⠹⢛</text>
        </g>
        <g transform="matrix(1,0,0,1,0,130)">
            <text x="0px" y="0px" style="font-family:'AppleSymbols', 'Apple Symbols';font-size:10px;fill:white;">⣷⣤⠊⠘⣯⠇⠀⠀⣲⡞⣙⣷⢛⠊⠑⡀⠀⠀⠀⠀⠀⠀⠀⠀⠞⣻⠵⠁⠉⠀⢠⠦⡀⠀⠀⠀⠀⠀⠀⠀⠀⠀⠀⠀⠀⠀⠀⠀⠀⠉⢲⣙⡀⠀⠀⠀⠀⠀⠀⠀⠀⠀⠀⢰⡱⠋⠙⢧⡳⡀⠀⠀⠀⠀⠀⠀⠀⠀⠀⠀⠀⠀⠀⠀⠀⢿⣟⣦⣻⣟⣟⣿⡯⣫⢟⣏⢯⠳⡯⣿⣕⠍⠀⣲⢀⠈⠠⢋⣹⡗⡀⠀⣸⡙⠋⠋⠓⠒⠲⢾</text>
        </g>
        <g transform="matrix(1,0,0,1,0,140)">
            <text x="0px" y="0px" style="font-family:'AppleSymbols', 'Apple Symbols';font-size:10px;fill:white;">⣿⠁⠀⣰⣟⢆⢰⡿⣓⢈⣞⣞⡒⣶⠄⡃⠀⠀⠀⠀⠀⠀⠀⠀⢰⡃⢸⠀⠀⠠⢇⢀⠨⡄⠀⠀⠀⠀⠀⠀⠀⠀⠀⠀⠀⠀⠀⠀⠀⠀⠀⡗⡇⠀⠀⠀⠀⠀⠀⠀⠀⠀⠀⠸⡃⣀⠀⠈⢳⢡⠀⠀⠀⠀⠀⠀⠀⠀⠀⠀⠀⠀⠀⠀⠀⢸⣯⡔⣿⣽⣷⢿⣾⣳⣟⣽⢻⡯⣿⣿⣵⠈⠀⢸⡄⠈⠀⡪⣾⡽⡔⡐⣸⠄⠆⠀⢰⠀⢡⢹</text>
        </g>
        <g transform="matrix(1,0,0,1,0,150)">
            <text x="0px" y="0px" style="font-family:'AppleSymbols', 'Apple Symbols';font-size:10px;fill:white;">⢿⣧⡴⠿⣦⣣⡻⢯⣅⡾⣽⣎⣏⠄⣁⢰⠀⠀⠀⠀⠀⠀⠀⠠⡺⡯⠽⣔⠒⢮⡃⡄⠊⠃⠀⠀⠀⠀⠀⠀⠀⠀⠀⠀⠀⠀⠀⠀⠀⠀⡸⣠⠇⠀⠀⠀⠀⠴⡻⢏⡣⡀⠀⠀⠉⠉⠀⠀⡸⣸⠀⠀⠀⠀⠀⠀⠀⠀⠀⠀⠀⠀⠀⠀⠀⢸⣯⣓⣿⣿⣽⡛⡯⡶⢷⣹⣵⣯⣿⡿⣽⠄⠄⢼⢆⠥⡐⣵⣿⣟⢏⠄⢼⢧⢅⢂⠬⠠⠹⣸</text>
        </g>
        <g transform="matrix(1,0,0,1,0,160)">
            <text x="0px" y="0px" style="font-family:'AppleSymbols', 'Apple Symbols';font-size:10px;fill:white;">⠆⢪⣳⡤⣿⡿⡽⡦⣤⡙⠻⢍⣛⡮⣥⢒⠂⠀⠀⠀⠀⠀⠀⠈⠓⢧⣘⣹⡀⠐⢱⣧⣨⡀⠀⡀⠄⡀⠀⠀⠀⠀⠀⠀⠀⠀⠀⠀⣀⠜⢴⠚⠀⠀⠀⠀⠀⢹⣠⠈⠗⣱⠀⠀⠀⠀⠀⣠⢇⡋⠀⠀⠀⠀⠀⠀⠀⠀⠀⠀⠀⠀⠀⠀⠀⣾⢷⣳⣿⣿⣯⣿⢿⣽⣯⣾⣿⡾⢿⣿⣷⡇⣬⠜⠟⠶⣿⡷⡀⠹⣗⡧⢿⣯⢵⡳⣲⢱⣣⣻</text>
        </g>
        <g transform="matrix(1,0,0,1,0,170)">
            <text x="0px" y="0px" style="font-family:'AppleSymbols', 'Apple Symbols';font-size:10px;fill:white;">⠖⣧⡟⣸⡿⢻⢌⡺⡝⣿⡏⠲⠤⠝⠾⡵⠁⠀⠀⠀⠀⠀⠀⠀⠀⢀⡿⣿⡷⠎⠑⢸⠫⣲⣠⠒⢕⢮⡆⠀⠀⠀⠀⠀⠀⠀⢠⠘⢠⠜⠁⠀⠀⠀⠄⡀⠀⠀⠀⢀⢗⡾⠀⠀⠀⠠⠞⣠⠟⠀⠀⠀⠀⠀⠀⠀⠀⠀⠀⠀⠀⠀⠀⢀⣠⣿⣟⣻⢿⣿⢿⡗⣆⡟⡫⣙⣽⣿⣿⣣⢤⡁⠌⣂⠀⢢⡀⠉⠿⡃⠌⢎⡄⡈⢷⣿⡓⢿⣾⣿</text>
        </g>
        <g transform="matrix(1,0,0,1,0,180)">
            <text x="0px" y="0px" style="font-family:'AppleSymbols', 'Apple Symbols';font-size:10px;fill:white;">⡄⠨⡧⣟⣎⢢⠑⣣⣳⣾⠅⠀⠀⠀⠀⠀⠀⢀⠤⢀⠀⠀⠀⠀⠀⢸⣿⢝⢇⠄⠀⡌⣽⣏⡇⣨⡸⣪⠇⠀⠀⠀⠀⠀⠀⠠⡉⢰⠋⠀⠀⢠⠄⣸⣠⣇⣤⣁⡴⣎⡵⠁⠀⠀⠰⠋⠞⠁⠀⠀⠀⠀⠀⠀⠀⠀⠀⠀⠀⠀⠀⠀⢠⣿⡫⣶⠯⣾⢫⣪⣾⣃⣿⡃⢣⢺⡯⣞⣿⢸⠒⡇⡀⠼⡁⢰⡗⡆⡀⠀⡆⠀⠠⠀⢻⣿⡐⢰⣿⠻</text>
        </g>
        <g transform="matrix(1,0,0,1,0,190)">
            <text x="0px" y="0px" style="font-family:'AppleSymbols', 'Apple Symbols';font-size:10px;fill:white;">⡿⡀⢘⣟⡕⠱⢤⣎⣟⡾⡂⠀⠀⠀⠀⠀⠀⡆⡄⠐⢀⠀⠀⠀⠀⠈⢻⣭⡥⢆⣰⠍⢸⣹⠃⢜⢴⡻⠀⠀⠀⠀⠀⠀⢀⢋⠲⡝⠀⠀⠀⣸⠹⠀⡠⠤⡈⠛⣻⡞⠁⠀⠀⠠⠇⡟⠀⠀⠀⡠⠤⠤⢄⠀⠀⠀⠀⠀⠀⠀⠀⠀⢸⣗⣏⣞⣽⣿⢑⡮⡿⣬⣾⢪⣣⣗⢯⣻⣿⡨⣝⠇⠊⣸⠃⢈⣿⢓⠄⡀⢹⣥⠄⠂⠀⣿⣜⡔⣿⣿</text>
        </g>
        <g transform="matrix(1,0,0,1,0,200)">
            <text x="0px" y="0px" style="font-family:'AppleSymbols', 'Apple Symbols';font-size:10px;fill:white;">⠗⢌⣿⡕⠝⢗⢤⣄⢀⡴⠁⠀⠀⣠⢄⠤⣠⢫⠐⠉⡙⠀⠀⠀⠀⣠⡋⠔⢬⢉⠛⡀⠈⢻⠈⡎⣾⠁⣠⣒⡂⢄⠀⠀⠰⢻⢘⡇⠀⠠⡪⣤⣈⠚⠣⡣⠩⠨⡔⡸⡍⠀⠀⢸⣐⣃⠀⠀⡞⣰⠵⠶⢤⡑⡀⠀⠀⠀⠀⠀⣼⡏⣟⣾⠱⡳⣾⡷⢓⣽⡯⣪⡾⡨⢦⡿⡟⠻⣇⢹⢸⢕⠐⣿⠐⢌⡷⡕⢄⢨⡀⠈⠾⡈⠆⣿⣟⠛⡙⠿</text>
        </g>
        <g transform="matrix(1,0,0,1,0,210)">
            <text x="0px" y="0px" style="font-family:'AppleSymbols', 'Apple Symbols';font-size:10px;fill:white;">⡂⣼⣿⢎⣊⣦⣟⢔⣯⣧⠀⢀⢤⠁⡀⡠⢚⠳⢼⣄⣅⠀⠀⠀⠰⣏⡪⠈⢀⡏⣧⢱⠀⢸⢸⢸⠋⠀⠃⠀⠈⡟⣣⠀⠀⠟⡔⣧⠀⠈⠧⣧⣷⡳⣤⠈⡡⣬⡔⡇⣫⠃⠀⠨⡧⡸⡀⢨⡲⡇⠀⠀⠀⢑⡅⠀⠀⠀⠀⢠⡗⣗⡽⡣⢵⣫⡷⣟⢘⣜⣗⢵⣿⣕⣻⣿⠅⡨⣷⢘⣝⢑⢌⠿⡜⡠⢷⢗⠂⢵⡅⠀⠀⡯⡐⢹⣿⡧⡀⠀</text>
        </g>
        <g transform="matrix(1,0,0,1,0,220)">
            <text x="0px" y="0px" style="font-family:'AppleSymbols', 'Apple Symbols';font-size:10px;fill:white;">⣳⣿⣏⢗⢞⣿⣮⣿⣿⡃⡜⠈⢍⣗⣕⣂⠞⢐⢋⡇⣸⠀⠀⠀⣯⡿⢝⡻⠨⢋⠉⣩⣂⠘⡬⠏⠀⠀⠀⠀⡐⡱⡇⠀⠀⠣⢇⠳⣆⠀⠀⠁⠏⢻⣯⣧⢢⣇⣹⡸⢼⢢⠀⠀⢻⣂⠕⢸⠨⡃⠀⠀⣠⢬⠇⠀⠀⠀⡀⣞⡺⡵⣽⡩⣺⢽⣳⡫⡪⣾⡳⡻⣑⢵⡿⢀⠄⠼⣟⠔⣳⡽⠃⡃⠠⠈⢻⡳⣁⣻⣽⠄⢂⠹⠵⣾⣏⠿⣟⣼</text>
        </g>
        <g transform="matrix(1,0,0,1,0,230)">
            <text x="0px" y="0px" style="font-family:'AppleSymbols', 'Apple Symbols';font-size:10px;fill:white;">⣩⠛⣞⡪⡝⠉⠀⠀⠈⠁⢷⠋⠲⣻⡿⡩⡀⠀⡀⣧⡬⠀⠀⠀⣿⢿⣷⡷⡯⠶⣿⣣⢀⣄⠁⠀⠀⠀⠠⠎⣰⠞⠀⠀⠀⠘⢼⢍⢖⣧⡀⠀⠀⣸⢯⢿⠌⣧⣯⢎⢣⠇⠀⠀⠀⠿⡅⠈⣖⡸⡄⠀⠀⠀⠀⠀⠀⠐⣹⡑⡴⡏⡃⣔⡯⣱⣫⡶⠾⢓⣿⡣⣪⣺⣏⢆⠱⢽⡟⢼⡼⢔⠅⠈⢢⠌⢦⠹⢵⣽⣾⣆⢕⡑⡥⣸⣽⠿⠛⠩</text>
        </g>
        <g transform="matrix(1,0,0,1,0,240)">
            <text x="0px" y="0px" style="font-family:'AppleSymbols', 'Apple Symbols';font-size:10px;fill:white;">⡀⢸⣣⡟⠀⠀⠀⣀⣰⠲⢸⡂⢥⣿⣫⡆⠀⣼⣼⢻⢣⠀⣀⡸⡋⠒⢨⣡⠀⠀⠙⢿⢃⢀⠀⠀⠀⠀⡇⣻⠁⠠⢰⠢⢄⠀⠰⣘⣮⡪⣞⠄⢨⢟⢍⢚⣤⢧⡿⢸⢱⡅⠀⠂⠀⠈⢗⠥⢸⡐⢲⠀⠀⠀⠀⡔⡓⡩⠒⢇⡺⢌⢐⢕⢍⣦⢏⠀⡪⣜⡗⡕⣎⣿⡞⠰⢉⢗⢯⡿⢹⠼⣕⣑⢨⠯⡶⡿⠛⢿⢡⡑⣷⣷⡿⢛⢑⣠⢵⠟</text>
        </g>
        <g transform="matrix(1,0,0,1,0,250)">
            <text x="0px" y="0px" style="font-family:'AppleSymbols', 'Apple Symbols';font-size:10px;fill:white;">⠀⢿⡾⠃⠄⠀⣸⡕⠗⠃⢀⡗⠉⢉⠻⠟⠚⠒⠙⡉⣉⣉⠤⠴⢒⡚⠉⠀⠀⠀⢀⡟⠁⡇⠀⠀⠀⢸⡆⢇⠀⠏⢹⢦⠈⣣⠀⠈⢄⣷⢹⢆⡹⣣⣒⣼⣛⢫⡇⡏⣺⠈⠈⠀⠄⠰⢹⡑⢡⣋⠂⡇⢀⠠⢐⡨⢐⢨⠨⠊⡀⠈⢆⢎⢲⠸⠨⢁⢔⢯⠢⣮⠩⣔⢇⡙⣴⡽⠟⠻⢥⡇⢧⣲⣱⡿⢟⢐⢔⣔⠷⠾⠉⡣⠔⡭⡂⣡⣖⣯</text>
        </g>
        <g transform="matrix(1,0,0,1,0,260)">
            <text x="0px" y="0px" style="font-family:'AppleSymbols', 'Apple Symbols';font-size:10px;fill:white;">⢵⣯⠁⢄⢁⠀⠀⠀⠀⠐⢽⣷⣤⣰⢰⠲⡞⠛⡅⠉⢿⡝⢖⠘⡇⠀⠀⠀⠀⠀⢸⣢⢁⠀⠀⢀⠀⢸⡕⠹⣄⠀⠘⢘⣇⢸⠄⠀⠸⠘⡇⡟⡗⠀⡡⡓⢍⡝⠠⣯⡏⠀⢠⠊⠀⢀⣯⠄⣞⡇⡴⡃⠀⢈⠀⠂⠁⠀⢠⡚⢁⡐⣣⠑⢐⡱⠍⠔⢌⣪⡜⡁⣢⣯⡚⡪⠩⠮⡄⠤⢌⣟⣾⠽⠪⡢⢥⠻⠚⠩⡁⣠⣗⡮⠩⢐⣩⡱⣟⡿</text>
        </g>
        <g transform="matrix(1,0,0,1,0,270)">
            <text x="0px" y="0px" style="font-family:'AppleSymbols', 'Apple Symbols';font-size:10px;fill:white;">⣿⢿⠀⠀⠀⠀⠀⠀⠀⠀⢸⣍⡱⠙⡉⡜⢥⠐⣨⡆⣠⠙⠗⠀⠀⡔⠀⠀⠀⠀⢸⢂⢮⠀⠀⠀⠀⠀⢯⣎⡾⣦⣀⡑⡗⠜⣆⠀⠢⢹⣽⢸⢋⣔⠫⡈⡸⣀⡾⡷⠇⢀⠀⢈⢔⠝⣀⡞⡸⡰⡴⢀⠔⢀⠀⠂⠉⠀⡯⡇⠀⠦⠐⠉⠀⠤⠒⠊⠊⢀⢐⠩⠅⡚⠁⠣⠵⠲⠱⠺⢙⣩⡕⡊⣉⢉⢠⢍⣹⢋⣽⣟⡟⣄⠖⡻⣳⢹⡸⣿</text>
        </g>
        <g transform="matrix(1,0,0,1,0,280)">
            <text x="0px" y="0px" style="font-family:'AppleSymbols', 'Apple Symbols';font-size:10px;fill:white;">⢿⣿⣧⢿⣥⢴⣅⣆⣀⡄⢻⡽⠛⠶⠴⢃⠘⣫⡢⠳⡙⣿⢶⢦⣾⣤⣢⠼⡶⠴⡿⢿⣍⣲⣤⣢⣀⠀⠈⢚⣾⢼⡝⡧⣷⢡⣹⢶⣤⡐⣄⢗⡎⡐⠂⡔⢠⢴⣻⠗⢨⠊⠔⣡⡴⠎⡥⢗⢽⡠⢂⠄⢐⠋⡑⠒⠂⠂⢫⠵⡐⠒⠒⠛⠛⠚⡚⢚⣚⢓⠓⡒⣓⣛⣒⡺⣚⣚⣟⣓⡗⠁⢔⠴⣺⢏⡿⢧⣟⠔⣿⣖⣟⠅⡧⠨⣗⣕⡿⣿</text>
        </g>
        <g transform="matrix(1,0,0,1,0,290)">
            <text x="0px" y="0px" style="font-family:'AppleSymbols', 'Apple Symbols';font-size:10px;fill:white;">⣶⢣⣚⠍⠺⡉⠏⠍⠼⢀⡾⡛⢻⡷⠒⠚⠛⢿⣖⡠⠘⣄⠢⢧⡀⡀⠈⠐⠰⣤⠨⠰⢴⣈⢲⣶⣽⣧⡈⠥⠀⠣⢈⡈⠘⡿⡞⢫⢄⠙⡜⠮⠰⢈⡞⢨⣷⠛⠿⢀⢀⠀⡴⣇⡮⡫⢲⣥⠜⠐⠁⠒⠿⠀⠀⠠⠠⠠⠈⢣⡌⡳⡄⠔⠐⠠⠐⠊⠐⠴⠥⠒⡒⠜⢍⡩⠪⢎⢊⣓⢒⡛⣛⣻⢛⣛⣛⢗⣺⣛⣺⣞⢴⣽⣎⣏⣿⡾⡿⢟</text>
        </g>
        <g transform="matrix(1,0,0,1,0,300)">
            <text x="0px" y="0px" style="font-family:'AppleSymbols', 'Apple Symbols';font-size:10px;fill:white;">⣶⣎⢺⡥⣴⣸⡦⠏⣠⢿⠓⠒⡋⣁⡢⡬⣪⠦⣸⣓⢤⠇⣴⣎⢯⡯⠷⣇⢛⡝⣺⣶⣞⢗⡓⡓⡛⠫⠛⠀⠉⠐⠠⠆⠤⠠⠄⠀⠡⠀⠀⠠⠨⢀⡀⠠⠀⣀⡁⡀⣀⠨⠉⠌⠇⠑⣈⣠⠨⡀⠬⡐⠈⢐⠈⡩⣀⠄⢄⣀⠸⣖⢸⡎⠍⠌⠬⠀⠡⢍⠁⢉⠈⢂⡓⠋⡉⠍⠭⠍⠃⢈⡭⠭⠭⣈⡉⠉⠠⢉⠸⠬⠴⠦⠴⢶⠤⡯⣫⣭</text>
        </g>
        <g transform="matrix(1,0,0,1,0,310)">
            <text x="0px" y="0px" style="font-family:'AppleSymbols', 'Apple Symbols';font-size:10px;fill:white;">⣤⣍⣉⣁⣀⣀⡡⢌⣉⣬⣀⣉⣨⣀⣂⡁⣊⣠⣁⣂⣨⣄⣁⣬⣀⣐⣈⣀⣄⣀⣤⢄⣒⠒⠐⣒⣀⣌⣐⣒⠒⠒⢂⣨⣄⠒⠂⠁⢒⣁⣍⣐⠒⠐⠂⣁⣉⣉⣀⣀⡒⠈⢁⣈⣈⣋⣠⣤⣁⣃⣐⢀⣀⣤⡴⣄⣀⣀⣠⣠⣠⣉⣩⣅⣀⣈⣁⡬⣁⣀⣐⣀⣤⢄⣐⢘⢉⣁⣠⣁⣡⠊⢀⣤⣦⣴⡨⣢⣅⣀⣡⣴⣤⣁⣩⣠⣅⣀⣐⣀</text>
        </g>
        <g transform="matrix(1,0,0,1,0,320)">
            <text x="0px" y="0px" style="font-family:'AppleSymbols', 'Apple Symbols';font-size:10px;fill:white;">⣟⣛⢽⢮⣳⡫⣽⣛⢾⡺⡯⣑⢕⣑⣵⣽⢱⢿⢷⢻⠯⡸⢍⣎⢲⢩⡶⠗⠓⠻⢾⡸⡜⡏⣝⡮⠶⠥⠯⣇⣏⢳⢑⢱⡨⢝⣹⠽⣽⢿⣻⡯⢝⡉⣏⢟⣯⣟⣿⣻⣽⢿⢿⢼⣹⡏⣎⢎⢎⢯⣸⠮⢛⠒⠷⢶⣩⠹⡘⢦⠊⣿⢗⣿⢑⡑⡍⢮⣱⠽⠼⠵⢮⡅⡯⢕⠯⣗⡝⣷⡃⡐⡿⣿⣻⣽⢾⡔⢿⣿⡽⣿⠟⣩⣍⡛⢿⣟⣿⣿</text>
        </g>
        <g transform="matrix(1,0,0,1,0,330)">
            <text x="0px" y="0px" style="font-family:'AppleSymbols', 'Apple Symbols';font-size:10px;fill:white;">⣟⣷⢋⢥⣱⣮⣯⣲⣟⡱⡱⡵⡋⣴⢴⢬⠮⣿⣺⣟⠕⡣⡐⣕⣼⠏⡤⡷⣷⣳⢤⣜⣯⠞⠁⢐⠀⡀⡀⠀⠙⣦⢣⠱⣨⢓⢜⠵⢛⣽⡞⣏⢆⣉⣒⠵⣵⡭⢿⣺⢽⣺⣭⣺⣼⡮⣚⣲⣋⡍⣆⢉⢕⡠⡅⠌⢙⣯⣊⣱⢽⢏⣟⣗⢵⢸⡼⠋⠁⡀⠄⠤⠡⠩⣻⡵⡳⡓⣛⣼⡕⢨⢿⣷⣽⢽⣯⢿⢫⣯⣻⢍⣼⢿⣿⠿⣿⣿⣯⣯</text>
        </g>
        <g transform="matrix(1,0,0,1,0,340)">
            <text x="0px" y="0px" style="font-family:'AppleSymbols', 'Apple Symbols';font-size:10px;fill:white;">⣿⠧⠷⣿⡿⢪⣷⣿⢵⡱⣽⢁⣿⣯⣳⣽⣿⢷⡻⣯⣻⡙⢕⣕⡗⢼⡫⡕⣲⢳⣻⡟⠂⠀⣠⣲⣼⣦⣦⣃⠐⡘⣵⡊⣖⢽⣡⣞⣿⠾⡾⣿⡕⣬⡖⢛⠛⠙⠻⣿⣿⣟⡶⢺⣱⣝⢧⡤⣤⣥⡖⣰⢱⣼⡪⡎⠂⣻⣮⣺⡫⡭⣷⡳⣹⠾⢠⢔⠨⡠⣡⢭⣶⠪⡀⡝⣗⡯⣏⣞⢷⡢⠑⢿⣾⣻⣧⢏⣗⣿⣽⡆⢽⣿⣸⣿⡿⢋⡏⣺</text>
        </g>
        <g transform="matrix(1,0,0,1,0,350)">
            <text x="0px" y="0px" style="font-family:'AppleSymbols', 'Apple Symbols';font-size:10px;fill:white;">⠁⢦⠁⣂⠌⢳⢉⣻⣻⣾⣿⡐⢿⣽⢾⡳⣛⣛⠷⡿⡽⡾⣯⢳⢫⢺⣝⣜⢖⣝⣾⠐⠀⣬⣽⣏⢮⢎⡳⣿⣢⠆⢈⢳⡱⡛⢞⣟⡼⣿⣞⣷⢟⠡⢠⢦⠜⣅⠖⠠⠻⣯⣿⡻⣿⢟⣜⣿⣛⣥⡾⣶⢿⢝⡏⡊⡈⣿⣫⡳⣳⣾⡗⣝⡞⡐⠼⠴⠥⣆⢯⣾⣽⣿⡨⡄⠼⣯⢏⢺⢽⣷⠡⡪⣿⣟⣿⣎⣻⣽⣾⣿⢢⣿⣿⣟⢕⠤⣝⣷</text>
        </g>
        <g transform="matrix(1,0,0,1,0,360)">
            <text x="0px" y="0px" style="font-family:'AppleSymbols', 'Apple Symbols';font-size:10px;fill:white;">⢭⣺⣓⡢⡜⡆⡙⡾⣿⣻⣾⣷⢌⢙⢛⢛⠙⠉⠛⠺⢖⣶⢙⣯⢿⢧⡚⣷⣽⠱⡏⠢⠁⣯⣗⣇⣯⢷⣔⢻⣘⡢⡈⠀⢻⣽⡯⣯⣾⣽⢿⠏⡀⢖⡿⣛⣯⣟⢿⡄⢃⠹⣿⡾⣾⣿⣿⣽⣻⣱⡝⣜⣶⡿⢙⢨⢰⢼⣾⣿⢯⢿⡝⣾⡇⣠⣦⢾⡿⡶⢏⣟⡿⣿⢞⡔⡭⣿⣽⢛⣽⣿⢈⠮⣾⣿⢿⣾⣭⣳⡿⣿⣽⣿⣏⢭⣵⣿⣽⣋</text>
        </g>
        <g transform="matrix(1,0,0,1,0,370)">
            <text x="0px" y="0px" style="font-family:'AppleSymbols', 'Apple Symbols';font-size:10px;fill:white;">⣿⠲⣶⣽⣰⠷⡪⡎⢾⣿⣯⠿⣿⢿⣾⢶⣯⣧⡵⣂⠈⠝⣯⣿⣽⣾⣾⢟⢾⣱⣏⡒⠌⡗⣿⣹⣷⢷⣹⣻⣇⡳⢿⢟⢦⣺⣾⣿⣭⣿⡷⢔⢼⣟⣣⣿⣿⣿⢷⡻⣆⢐⡹⢯⣿⣻⣟⣛⣷⣿⣽⣻⠟⠁⠅⣒⡽⣿⢿⣾⣿⣏⣯⣿⣻⣽⢦⡿⣩⣾⢿⣿⣹⣟⡭⡜⣸⡻⣽⣿⣾⡏⠤⣣⣿⣿⣟⣿⡿⣷⣿⣽⣿⡿⣞⡽⡾⣿⡡⣜</text>
        </g>
        <g transform="matrix(1,0,0,1,0,380)">
            <text x="0px" y="0px" style="font-family:'AppleSymbols', 'Apple Symbols';font-size:10px;fill:white;">⣷⣻⣮⣿⣷⡷⡢⡇⡆⡝⡕⣭⢿⣿⣽⣿⣿⣾⣿⡷⡧⡱⣽⡷⣛⣿⣷⣻⣯⣮⢫⢮⣸⢹⣻⣷⡿⣷⣻⣟⣽⣿⣮⣍⣿⣿⣿⣶⣿⣷⣿⢴⡻⡧⣽⣿⣿⣺⣟⣯⣻⣵⡂⡍⠙⡻⢿⡿⠷⠟⡋⠬⢈⣼⣴⢿⣾⣿⡾⢉⣄⣍⡙⢷⣿⣾⣟⣿⢽⣞⣿⣻⣿⣷⠷⣺⣱⡫⣝⡛⡵⡱⣱⢾⣿⡽⣿⣻⣿⢿⣿⡟⣭⢬⢰⢬⡿⣿⣝⣿</text>
        </g>
        <g transform="matrix(1,0,0,1,0,390)">
            <text x="0px" y="0px" style="font-family:'AppleSymbols', 'Apple Symbols';font-size:10px;fill:white;">⡟⢿⢿⡻⣿⣿⣯⣺⠽⣼⣽⣪⣿⡿⢽⣮⢽⣿⣽⣟⣧⣣⢾⣷⣟⣻⡽⣿⣿⣿⡽⣯⢷⣡⠳⡝⣿⣿⣟⡿⡻⡷⣯⣯⣟⣗⡿⡿⣿⣻⣯⣷⣟⣧⡻⣿⣽⣿⣯⣿⣯⣳⣷⣳⠭⣔⡆⣆⡇⡮⣖⡭⣷⢿⣵⣿⣿⣛⢼⣽⣯⣿⢿⣷⣭⣾⣿⣿⡿⣗⡟⣮⣿⢿⣽⣽⢏⡷⣱⡽⣮⣞⣯⣿⣿⡽⣿⡿⣾⣹⢜⣟⣿⣽⣾⣏⡳⣗⣽⣻</text>
        </g>
        <g transform="matrix(1,0,0,1,0,400)">
            <text x="0px" y="0px" style="font-family:'AppleSymbols', 'Apple Symbols';font-size:10px;fill:white;">⣿⣷⣻⣶⣽⣯⣿⣿⣿⣿⣿⣟⣿⣼⣦⣯⣿⣿⣻⣿⣯⣯⣿⣿⣽⣿⣿⣿⣿⣿⣿⣯⣿⣷⣿⣽⣾⣾⣿⣿⣿⣿⣿⣿⣷⣿⣽⣟⣿⣿⣿⣿⣿⣿⣿⣿⣿⣿⣿⣿⣿⣷⣾⣻⣿⣶⣿⣿⣻⣿⣿⣻⣿⣿⣿⣿⣿⣞⣾⣿⣿⣿⣽⣪⣿⣯⣿⣷⣿⣿⣽⣿⣾⣿⣿⣿⣟⣿⣿⣿⣿⣿⣿⣿⣷⣿⣿⣽⣽⣽⣿⣯⣿⣿⣵⣾⣿⣿⣿⣿</text>
        </g>
    </g>
</svg>
