# This file uses centimeters as units for non-parametric coordinates.

mtllib sm_K6_DiceSet_01.mtl
g default
v -0.694562 0.025011 0.674212
v -0.694185 0.058286 0.706424
v -0.726397 0.058560 0.673470
v -0.722690 1.404087 0.671364
v -0.692267 1.404379 0.702262
v -0.692089 1.434919 0.671503
v 0.686372 0.058585 0.673661
v 0.653395 0.058453 0.707016
v 0.653418 0.025302 0.673825
v 0.652080 1.436476 0.672356
v 0.652656 1.405319 0.704886
v 0.684461 1.405338 0.673009
v -0.721946 1.403846 -0.671565
v -0.691650 1.433399 -0.671272
v -0.691909 1.403730 -0.701317
v 0.651860 1.404420 -0.703166
v 0.651728 1.435385 -0.671982
v 0.683810 1.405167 -0.672879
v -0.723186 0.060149 -0.671495
v -0.691761 0.060372 -0.702187
v -0.693407 0.027483 -0.672903
v 0.652418 0.027481 -0.672781
v 0.651918 0.059934 -0.704628
v 0.684518 0.059518 -0.672708
vt 0.879697 0.504917
vt 0.877235 0.504917
vt 0.879697 0.411340
vt 0.877235 0.411340
vt 0.754853 0.295017
vt 0.754853 0.292576
vt 0.847605 0.295017
vt 0.847605 0.292576
vt 0.752412 0.295017
vt 0.752412 0.387768
vt 0.754853 0.387768
vt 0.628470 0.412247
vt 0.630885 0.412247
vt 0.628470 0.504010
vt 0.630885 0.504010
vt 0.754853 0.390209
vt 0.847605 0.390209
vt 0.847605 0.387768
vt 0.975736 0.504917
vt 0.973274 0.504917
vt 0.975736 0.411340
vt 0.973274 0.411340
vt 0.850046 0.295017
vt 0.850046 0.387768
vt 0.722648 0.412247
vt 0.725063 0.412247
vt 0.722648 0.504010
vt 0.725063 0.504010
vt 0.751978 0.411340
vt 0.754440 0.411340
vt 0.751978 0.504917
vt 0.754440 0.504917
vt 0.630885 0.506425
vt 0.722648 0.506425
vt 0.848018 0.411340
vt 0.850480 0.411340
vt 0.848018 0.504917
vt 0.850480 0.504917
vt 0.754440 0.507379
vt 0.848018 0.507379
vt 0.880741 0.295648
vt 0.972229 0.295648
vt 0.880741 0.387137
vt 0.972229 0.387137
vt 0.631086 0.388181
vt 0.631086 0.294604
vt 0.724663 0.388181
vt 0.724663 0.294604
vn -0.725373 -0.688354 -0.001885
vn -0.725373 -0.688354 -0.001885
vn -0.725373 -0.688354 -0.001885
vn -0.587577 -0.809168 -0.000073
vn -0.587577 -0.809168 -0.000073
vn -0.587577 -0.809168 -0.000073
vn 0.000938 -0.881719 0.471774
vn -0.587577 -0.809168 -0.000073
vn 0.000938 -0.881719 0.471774
vn 0.000938 -0.881719 0.471774
vn -0.587577 -0.809168 -0.000073
vn 0.000938 -0.881719 0.471774
vn -0.587577 -0.809168 -0.000073
vn 0.000938 -0.881719 0.471774
vn -0.848806 0.000028 0.528704
vn -0.848806 0.000028 0.528704
vn 0.000938 -0.881719 0.471774
vn -0.848806 0.000028 0.528704
vn -0.848806 0.000028 0.528704
vn -0.773658 0.633604 0.000225
vn -0.773658 0.633604 0.000225
vn -0.773658 0.633604 0.000225
vn -0.773658 0.633604 0.000225
vn -0.773658 0.633604 0.000225
vn -0.773658 0.633604 0.000225
vn -0.848806 0.000028 0.528704
vn 0.000730 0.597041 0.802210
vn 0.000730 0.597041 0.802210
vn -0.848806 0.000028 0.528704
vn 0.000730 0.597041 0.802210
vn 0.870684 -0.491843 -0.000013
vn 0.000938 -0.881719 0.471774
vn 0.870684 -0.491843 -0.000013
vn 0.870684 -0.491843 -0.000013
vn 0.000938 -0.881719 0.471774
vn 0.870684 -0.491843 -0.000013
vn 0.000938 -0.881719 0.471774
vn 0.870684 -0.491843 -0.000013
vn 0.000730 0.597041 0.802210
vn 0.000730 0.597041 0.802210
vn 0.870684 -0.491843 -0.000013
vn 0.492176 0.000189 0.870496
vn 0.000730 0.597041 0.802210
vn 0.492176 0.000189 0.870496
vn 0.538703 0.842496 0.000270
vn 0.538703 0.842496 0.000270
vn 0.492176 0.000189 0.870496
vn 0.538703 0.842496 0.000270
vn -0.773658 0.633604 0.000225
vn -0.628072 -0.000208 -0.778155
vn -0.587577 -0.809168 -0.000073
vn -0.587577 -0.809168 -0.000073
vn -0.628072 -0.000208 -0.778155
vn -0.628072 -0.000208 -0.778156
vn -0.628072 -0.000208 -0.778155
vn -0.773658 0.633604 0.000225
vn 0.000189 0.855980 -0.517008
vn 0.000189 0.855980 -0.517008
vn -0.773658 0.633604 0.000225
vn 0.538703 0.842496 0.000270
vn 0.000189 0.855980 -0.517008
vn 0.538703 0.842496 0.000270
vn 0.793471 -0.000004 -0.608609
vn 0.793471 -0.000004 -0.608609
vn 0.538703 0.842496 0.000270
vn 0.870684 -0.491843 -0.000013
vn -0.587577 -0.809168 -0.000073
vn -0.628072 -0.000208 -0.778156
vn 0.870684 -0.491843 -0.000013
vn 0.870684 -0.491843 -0.000013
vn -0.628072 -0.000208 -0.778156
vn 0.793471 -0.000004 -0.608609
vn 0.000938 -0.881719 0.471774
vn 0.000938 -0.881719 0.471774
vn -0.848806 0.000028 0.528704
vn -0.848806 0.000028 0.528704
vn 0.000938 -0.881719 0.471774
vn 0.000730 0.597041 0.802210
vn -0.773658 0.633604 0.000225
vn -0.773658 0.633604 0.000225
vn 0.538703 0.842496 0.000270
vn 0.538703 0.842496 0.000270
vn -0.773658 0.633604 0.000225
vn 0.000730 0.597041 0.802210
vn -0.628072 -0.000208 -0.778156
vn -0.628072 -0.000208 -0.778155
vn 0.793471 -0.000004 -0.608609
vn 0.793471 -0.000004 -0.608609
vn -0.628072 -0.000208 -0.778155
vn 0.000189 0.855980 -0.517008
vn -0.587577 -0.809168 -0.000073
vn -0.587577 -0.809168 -0.000073
vn 0.000938 -0.881719 0.471774
vn 0.000938 -0.881719 0.471774
vn -0.587577 -0.809168 -0.000073
vn 0.870684 -0.491843 -0.000013
vn 0.870684 -0.491843 -0.000013
vn 0.870684 -0.491843 -0.000013
vn 0.492176 0.000189 0.870496
vn 0.492176 0.000189 0.870496
vn 0.870684 -0.491843 -0.000013
vn 0.538703 0.842496 0.000270
vn -0.773658 0.633604 0.000225
vn -0.587577 -0.809168 -0.000073
vn -0.848806 0.000028 0.528704
vn -0.848806 0.000028 0.528704
vn -0.587577 -0.809168 -0.000073
vn -0.587577 -0.809168 -0.000073
vn -0.587577 -0.809168 -0.000073
vn 0.000938 -0.881719 0.471774
vn -0.587577 -0.809168 -0.000073
vn -0.848806 0.000028 0.528704
vn -0.848806 0.000028 0.528704
vn -0.773658 0.633604 0.000225
vn 0.870684 -0.491843 -0.000013
vn 0.000938 -0.881719 0.471774
vn 0.000938 -0.881719 0.471774
vn 0.000730 0.597041 0.802210
vn 0.000730 0.597041 0.802210
vn 0.492176 0.000189 0.870496
vn -0.773658 0.633604 0.000225
vn -0.773658 0.633604 0.000225
vn -0.628072 -0.000208 -0.778155
vn 0.000189 0.855980 -0.517008
vn 0.538703 0.842496 0.000270
vn 0.538703 0.842496 0.000270
vn -0.587577 -0.809168 -0.000073
vn -0.628072 -0.000208 -0.778156
vn -0.587577 -0.809168 -0.000073
vn 0.870684 -0.491843 -0.000013
vn 0.793471 -0.000004 -0.608609
vn 0.870684 -0.491843 -0.000013
s off
g sm_K6_DiceSet_01
usemtl lambert2SG
f 1/1/1 3/2/2 21/3/3
f 21/3/4 3/2/5 19/4/6
f 2/5/7 1/6/8 8/7/9
f 8/7/10 1/6/11 9/8/12
f 3/9/13 2/5/14 4/10/15
f 4/10/16 2/5/17 5/11/18
f 4/12/19 6/13/20 13/14/21
f 13/14/22 6/13/23 14/15/24
f 6/16/25 5/11/26 10/17/27
f 10/17/28 5/11/29 11/18/30
f 7/19/31 9/20/32 24/21/33
f 24/21/34 9/20/35 22/22/36
f 8/7/37 7/23/38 11/18/39
f 11/18/40 7/23/41 12/24/42
f 10/25/43 12/26/44 17/27/45
f 17/27/46 12/26/47 18/28/48
f 13/29/49 15/30/50 19/31/51
f 19/31/52 15/30/53 20/32/54
f 15/33/55 14/15/56 16/34/57
f 16/34/58 14/15/59 17/27/60
f 16/35/61 18/36/62 23/37/63
f 23/37/64 18/36/65 24/38/66
f 21/39/67 20/32/68 22/40/69
f 22/40/70 20/32/71 23/37/72
f 2/5/73 8/7/74 5/11/75
f 5/11/76 8/7/77 11/18/78
f 14/15/79 6/13/80 17/27/81
f 17/27/82 6/13/83 10/25/84
f 20/32/85 15/30/86 23/37/87
f 23/37/88 15/30/89 16/35/90
f 1/1/91 21/3/92 9/20/93
f 9/20/94 21/3/95 22/22/96
f 7/41/97 24/42/98 12/43/99
f 12/43/100 24/42/101 18/44/102
f 13/45/103 19/46/104 4/47/105
f 4/47/106 19/46/107 3/48/108
f 1/6/109 2/5/110 3/9/111
f 4/10/112 5/11/113 6/16/114
f 7/23/115 8/7/116 9/8/117
f 10/17/118 11/18/119 12/24/120
f 13/14/121 14/15/122 15/33/123
f 16/34/124 17/27/125 18/28/126
f 19/31/127 20/32/128 21/39/129
f 22/40/130 23/37/131 24/38/132
